<svg height="30" version="1.1" width="126" xmlns="http://www.w3.org/2000/svg" id="svg-0-0" viewBox="0 0 126 30"><desc>Created with Snap</desc><defs></defs><path d="M 0 3.6 Q 0 0 3.6 0 L 108.9 0 Q 108.9 0 108.9 0 L 108.9 30 Q 108.9 30 108.9 30 L 3.6 30 Q 0 30 0 26.4 Z" fill="#000000" style="stroke-width: 0;"></path><path d="M 108.6 0 Q 108.6 0 108.6 0 L 122.4 0 Q 126 0 126 3.6 L 126 26.4 Q 126 30 122.4 30 L 108.6 30 Q 108.6 30 108.6 30 Z" fill="#e6761f" style="stroke-width: 0;"></path><g><svg viewBox="0 0 134 232" xmlns="http://www.w3.org/2000/svg" width="8.4" height="14.408233276157805" x="113.4" y="7.820512820512819"><title>arrow</title><desc>Created with Sketch.</desc><path d="M15.4 231.91c-3.91 0-7.83-1.45-10.82-4.38-5.99-5.85-5.99-15.33 0-21.16l92-90.01-92-90c-5.99-5.85-5.99-15.33 0-21.18 5.97-5.84 15.67-5.84 21.64 0l102.83 100.58c5.98 5.85 5.98 15.34 0 21.19l-102.83 100.58c-2.98 2.93-6.91 4.38-10.82 4.38" fill="#fff"></path><defs></defs></svg></g><g><svg viewBox="0 0 165 29" xmlns="http://www.w3.org/2000/svg" width="94.221" height="16.559050966608083" x="7.581000000000003" y="6.525"><title>masterpass-logo</title><desc>Created with Sketch.</desc><g fill="none"><path d="M164.497 10.35c-.998-.657-2.375-.995-3.892-.995-2.415 0-3.972 1.154-3.972 3.044 0 1.552 1.158 2.507 3.294 2.805l.978.139c1.137.159 1.677.458 1.677.995 0 .736-.759 1.154-2.176 1.154-1.437 0-2.475-.458-3.174-.995l-.978 1.611c1.138.836 2.575 1.233 4.132 1.233 2.754 0 4.351-1.293 4.351-3.103 0-1.671-1.257-2.547-3.333-2.845l-.978-.139c-.898-.12-1.617-.299-1.617-.935 0-.696.679-1.114 1.816-1.114 1.218 0 2.395.458 2.974.816l.898-1.671zm-9.96 0c-.998-.657-2.375-.995-3.892-.995-2.415 0-3.972 1.154-3.972 3.044 0 1.552 1.157 2.507 3.293 2.805l.978.139c1.138.159 1.677.458 1.677.995 0 .736-.758 1.154-2.176 1.154-1.437 0-2.475-.458-3.174-.995l-.978 1.611c1.138.836 2.575 1.233 4.132 1.233 2.754 0 4.351-1.293 4.351-3.103 0-1.671-1.257-2.547-3.333-2.845l-.978-.139c-.898-.12-1.617-.299-1.617-.935 0-.696.678-1.114 1.816-1.114 1.218 0 2.395.458 2.974.816l.898-1.671zm-23.772 3.959c0 1.671-1.098 3.044-2.894 3.044-1.717 0-2.874-1.313-2.874-3.044s1.157-3.044 2.874-3.044c1.797 0 2.894 1.372 2.894 3.044zm-7.724 0v8.196h2.076v-4.595c.659.855 1.657 1.393 3.014 1.393 2.674 0 4.77-2.089 4.77-4.993 0-2.904-2.096-4.993-4.77-4.993-1.357 0-2.355.537-3.014 1.392v-1.154h-2.076v4.754zm13.513.02c0-1.671 1.098-3.044 2.894-3.044 1.717 0 2.874 1.313 2.874 3.044s-1.158 3.044-2.874 3.044c-1.796 0-2.894-1.372-2.894-3.044zm7.724 0v-4.754h-2.076v1.154c-.658-.856-1.656-1.393-3.014-1.393-2.675 0-4.77 2.089-4.77 4.993 0 2.904 2.096 4.993 4.77 4.993 1.357 0 2.355-.537 3.014-1.393v1.154h2.076v-4.755zm-69.201 0c0-1.671 1.098-3.044 2.894-3.044 1.717 0 2.874 1.313 2.874 3.044s-1.157 3.044-2.874 3.044c-1.796 0-2.894-1.372-2.894-3.044zm7.724 0v-4.754h-2.076v1.154c-.659-.856-1.657-1.393-3.014-1.393-2.674 0-4.77 2.089-4.77 4.993 0 2.904 2.096 4.993 4.77 4.993 1.357 0 2.355-.537 3.014-1.393v1.154h2.076v-4.755zm25.748-3.143c1.337 0 2.196.836 2.415 2.308h-4.95c.22-1.373 1.058-2.308 2.535-2.308zm.04-1.85c-2.794 0-4.75 2.029-4.75 4.993 0 3.024 2.036 4.993 4.89 4.993 1.437 0 2.754-.358 3.912-1.333l-1.018-1.532c-.798.637-1.816.994-2.774.994-1.338 0-2.555-.616-2.854-2.327h7.086c.02-.259.04-.517.04-.796-.02-2.964-1.856-4.993-4.531-4.993zm-15.529.995c-.998-.657-2.375-.995-3.892-.995-2.415 0-3.972 1.154-3.972 3.044 0 1.552 1.158 2.507 3.293 2.805l.978.139c1.138.159 1.677.457 1.677.994 0 .736-.758 1.154-2.176 1.154-1.437 0-2.475-.458-3.174-.995l-.978 1.612c1.138.835 2.575 1.234 4.132 1.234 2.754 0 4.351-1.293 4.351-3.103 0-1.671-1.257-2.547-3.333-2.845l-.978-.139c-.898-.12-1.617-.299-1.617-.935 0-.696.679-1.114 1.817-1.114 1.218 0 2.395.458 2.974.816l.898-1.671zm26.766-.995c-1.197 0-1.976.557-2.515 1.393v-1.154h-2.056v9.509h2.076v-5.332c0-1.572.678-2.447 2.036-2.447.419 0 .858.06 1.297.239l.639-1.95c-.459-.179-1.058-.259-1.477-.259zm-17.704.239h-3.393v-2.885h-2.096v2.885h-1.936v1.89h1.936v4.336c0 2.208.858 3.521 3.314 3.521.898 0 1.936-.279 2.595-.736l-.599-1.771c-.619.358-1.298.537-1.837.537-1.038 0-1.377-.637-1.377-1.591v-4.297h3.393v-1.89zm-31.017 9.509v-5.968c0-2.248-1.437-3.76-3.753-3.78-1.218-.02-2.475.358-3.353 1.691-.659-1.054-1.697-1.691-3.154-1.691-1.018 0-2.016.298-2.795 1.413v-1.174h-2.076v9.509h2.096v-5.272c0-1.651.918-2.526 2.336-2.526 1.377 0 2.076.895 2.076 2.506v5.292h2.096v-5.272c0-1.651.958-2.526 2.335-2.526 1.417 0 2.096.895 2.096 2.506v5.292h2.096z" fill="#fff"></path><g><path fill="#FF5F00" d="M16.936 25.543h12.554v-22.485h-12.554z"></path><path d="M17.734 14.3c0-4.562 2.143-8.624 5.48-11.243-2.441-1.915-5.52-3.057-8.867-3.057-7.924 0-14.347 6.402-14.347 14.3 0 7.898 6.423 14.3 14.347 14.3 3.347 0 6.426-1.142 8.867-3.057-3.337-2.618-5.48-6.681-5.48-11.243" fill="#EC001B"></path><path d="M46.427 14.3c0 7.898-6.423 14.3-14.347 14.3-3.347 0-6.427-1.142-8.867-3.057 3.337-2.618 5.48-6.681 5.48-11.243s-2.143-8.624-5.48-11.243c2.44-1.915 5.52-3.057 8.867-3.057 7.923 0 14.347 6.402 14.347 14.3" fill="#F89E1B"></path></g></g><defs></defs></svg></g></svg>